<svg xmlns="http://www.w3.org/2000/svg" width="18" height="16" viewBox="0 0 18 16">
    <g fill="none" fill-rule="evenodd">
        <g fill="#000">
            <g>
                <path d="M12.993 20.119c.395.432.4 1.127.007 1.558-.39.429-1.019.434-1.418-.004l-6.285-6.894c-.393-.43-.4-1.122 0-1.56l6.285-6.893c.393-.431 1.025-.436 1.418-.005.39.428.392 1.121-.007 1.559l-4.579 5.022h13.584C22.55 12.902 23 13.39 23 14c0 .606-.452 1.097-1.002 1.097H8.414l4.58 5.023z" transform="translate(-20 -58) translate(15 52)"/>
            </g>
        </g>
    </g>
</svg>
